<svg width="134" height="38" viewBox="0 0 134 38" fill="none" xmlns="http://www.w3.org/2000/svg">
<path d="M3.52 11.76C3.52 12.6347 3.776 13.392 4.288 14.032C4.8 14.6507 5.44 15.2267 6.208 15.76C6.976 16.2933 7.808 16.816 8.704 17.328C9.62133 17.84 10.464 18.4267 11.232 19.088C12 19.728 12.64 20.4853 13.152 21.36C13.664 22.2347 13.92 23.3013 13.92 24.56C13.92 25.392 13.7707 26.1707 13.472 26.896C13.1733 27.6213 12.7467 28.2507 12.192 28.784C11.6587 29.3173 11.0187 29.7333 10.272 30.032C9.52533 30.3307 8.71467 30.48 7.84 30.48C7.02933 30.48 6.336 30.3947 5.76 30.224C5.184 30.0747 4.704 29.8933 4.32 29.68C3.872 29.4453 3.49867 29.1787 3.2 28.88C3.02933 29.2 2.79467 29.4987 2.496 29.776C2.21867 30.0533 1.92 30.2347 1.6 30.32H1.12C1.14133 30.0213 1.16267 29.7013 1.184 29.36C1.20533 29.0827 1.22667 28.7733 1.248 28.432C1.26933 28.0907 1.28 27.76 1.28 27.44C1.28 27.0773 1.26933 26.7253 1.248 26.384C1.22667 26.0213 1.20533 25.6907 1.184 25.392C1.16267 25.0507 1.14133 24.72 1.12 24.4H1.6C2.09067 26.1707 2.79467 27.5253 3.712 28.464C4.65067 29.3813 5.92 29.84 7.52 29.84C8.8 29.84 9.83467 29.4347 10.624 28.624C11.4347 27.792 11.84 26.6507 11.84 25.2C11.84 24.3253 11.584 23.5787 11.072 22.96C10.56 22.32 9.92 21.7333 9.152 21.2C8.384 20.6667 7.54133 20.144 6.624 19.632C5.728 19.12 4.896 18.544 4.128 17.904C3.36 17.2427 2.72 16.4747 2.208 15.6C1.696 14.7253 1.44 13.6587 1.44 12.4C1.44 11.6747 1.57867 10.992 1.856 10.352C2.13333 9.712 2.51733 9.15733 3.008 8.688C3.49867 8.19733 4.07467 7.81333 4.736 7.536C5.39733 7.25867 6.112 7.12 6.88 7.12C7.52 7.12 8.08533 7.20533 8.576 7.376C9.06667 7.54667 9.48267 7.728 9.824 7.92C10.208 8.15467 10.56 8.42133 10.88 8.72C11.0507 8.4 11.2747 8.10133 11.552 7.824C11.8507 7.54667 12.16 7.36533 12.48 7.28H12.96C12.9173 7.6 12.8853 7.92 12.864 8.24C12.8427 8.53867 12.8213 8.85867 12.8 9.2C12.8 9.52 12.8 9.84 12.8 10.16C12.8 10.5227 12.8 10.8853 12.8 11.248C12.8213 11.5893 12.8427 11.9093 12.864 12.208C12.8853 12.5493 12.9173 12.88 12.96 13.2H12.48C11.9893 11.4293 11.3067 10.0853 10.432 9.168C9.55733 8.22933 8.48 7.76 7.2 7.76C6.15467 7.76 5.28 8.12267 4.576 8.848C3.872 9.57333 3.52 10.544 3.52 11.76ZM23.8425 29.2L25.7625 29.68V30H19.2025V29.68L21.1225 29.2V8.24H17.7625C17.7625 9.136 17.5812 9.968 17.2185 10.736C16.8558 11.504 16.3972 12.1653 15.8425 12.72H15.5225C15.5438 12.4427 15.5652 12.1547 15.5865 11.856C15.6078 11.6 15.6292 11.3333 15.6505 11.056C15.6718 10.7573 15.6825 10.4587 15.6825 10.16C15.6825 9.75467 15.6718 9.40266 15.6505 9.104C15.6292 8.784 15.6078 8.50667 15.5865 8.272C15.5652 8.016 15.5438 7.792 15.5225 7.6H29.4425C29.3998 7.792 29.3678 8.016 29.3465 8.272C29.3252 8.50667 29.3038 8.784 29.2825 9.104C29.2825 9.40266 29.2825 9.75467 29.2825 10.16C29.2825 10.4587 29.2825 10.7573 29.2825 11.056C29.3038 11.3333 29.3252 11.6 29.3465 11.856C29.3678 12.1547 29.3998 12.4427 29.4425 12.72H29.1225C28.5678 12.1653 28.1092 11.504 27.7465 10.736C27.3838 9.968 27.2025 9.136 27.2025 8.24H23.8425V29.2ZM38.8763 23.44H32.3163L30.7163 28.88L32.7963 29.68V30H27.9962V29.68L30.0763 28.88L36.3163 7.12H36.7963L43.5163 29.2L45.4363 29.68V30H38.7163V29.68L40.6363 29.2L38.8763 23.44ZM32.4763 22.832H38.6843L35.4843 12.24L32.4763 22.832ZM52.1413 7.6C53.5066 7.6 54.6906 7.74933 55.6933 8.048C56.6959 8.34667 57.5279 8.752 58.1893 9.264C58.8506 9.776 59.3413 10.3733 59.6613 11.056C59.9813 11.7173 60.1413 12.432 60.1413 13.2C60.1413 13.8187 60.0453 14.3733 59.8533 14.864C59.6826 15.3333 59.4479 15.76 59.1493 16.144C58.8719 16.5067 58.5413 16.816 58.1573 17.072C57.7733 17.328 57.3893 17.5413 57.0053 17.712C56.0879 18.1173 55.0533 18.3733 53.9013 18.48C54.8399 18.5867 55.6933 18.8107 56.4613 19.152C57.1226 19.4507 57.7413 19.888 58.3173 20.464C58.8933 21.04 59.2346 21.8187 59.3413 22.8L59.9813 28.4C60.0239 28.8053 60.1199 29.0933 60.2693 29.264C60.4186 29.4347 60.5893 29.52 60.7812 29.52C60.8879 29.52 60.9946 29.488 61.1013 29.424C61.2293 29.3387 61.3466 29.2427 61.4533 29.136C61.5599 29.0293 61.6559 28.8907 61.7413 28.72L62.0613 29.04C61.9333 29.3173 61.7519 29.5627 61.5173 29.776C61.3252 29.9467 61.0693 30.1067 60.7493 30.256C60.4506 30.4053 60.0879 30.48 59.6613 30.48C58.9359 30.48 58.3386 30.2773 57.8693 29.872C57.4213 29.4453 57.1653 28.9547 57.1013 28.4L56.4613 22.8C56.3759 22.0747 56.2373 21.4667 56.0453 20.976C55.8533 20.464 55.5866 20.048 55.2453 19.728C54.9253 19.408 54.5093 19.1733 53.9973 19.024C53.4853 18.8747 52.8666 18.8 52.1413 18.8H50.8613V29.2L52.7812 29.68V30H46.2213V29.68L48.1413 29.2V8.4L46.2213 7.92V7.6H52.1413ZM57.1013 13.2C57.1013 11.6 56.6746 10.3733 55.8213 9.52C54.9679 8.66667 53.7413 8.24 52.1413 8.24H50.8613V18.16H52.1413C53.7413 18.16 54.9679 17.7333 55.8213 16.88C56.6746 16.0267 57.1013 14.8 57.1013 13.2ZM79.1825 7.76C78.5852 7.76 77.9985 7.93067 77.4225 8.272C76.8465 8.61333 76.3345 9.21067 75.8865 10.064C75.4385 10.896 75.0758 12.0267 74.7985 13.456C74.5212 14.864 74.3825 16.6453 74.3825 18.8C74.3825 20.9547 74.5212 22.7467 74.7985 24.176C75.0758 25.584 75.4492 26.7147 75.9185 27.568C76.3878 28.4 76.9318 28.9867 77.5505 29.328C78.1692 29.6693 78.8198 29.84 79.5025 29.84C80.0572 29.84 80.6225 29.6907 81.1985 29.392C81.7745 29.0933 82.2972 28.6773 82.7665 28.144C83.2572 27.6107 83.6625 26.9813 83.9825 26.256C84.3238 25.5307 84.5372 24.752 84.6225 23.92H85.1025C85.0172 24.88 84.8038 25.7653 84.4625 26.576C84.1212 27.3653 83.6838 28.0587 83.1505 28.656C82.6385 29.232 82.0412 29.68 81.3585 30C80.6758 30.32 79.9505 30.48 79.1825 30.48C78.1798 30.48 77.2092 30.2453 76.2705 29.776C75.3318 29.2853 74.4892 28.56 73.7425 27.6C73.0172 26.6187 72.4305 25.4027 71.9825 23.952C71.5558 22.48 71.3425 20.7627 71.3425 18.8C71.3425 16.8373 71.5558 15.1307 71.9825 13.68C72.4305 12.208 73.0065 10.992 73.7105 10.032C74.4358 9.05067 75.2465 8.32533 76.1425 7.856C77.0385 7.36533 77.9452 7.12 78.8625 7.12C79.3745 7.12 79.8332 7.20533 80.2385 7.376C80.6652 7.54667 81.0278 7.73867 81.3265 7.952C81.6678 8.18667 81.9665 8.45333 82.2225 8.752C82.3932 8.432 82.6172 8.13333 82.8945 7.856C83.1932 7.55733 83.5025 7.36533 83.8225 7.28H84.3025C84.2598 7.6 84.2278 7.92 84.2065 8.24C84.1852 8.53867 84.1638 8.85867 84.1425 9.2C84.1425 9.52 84.1425 9.84 84.1425 10.16C84.1425 10.5227 84.1425 10.8853 84.1425 11.248C84.1638 11.5893 84.1852 11.9093 84.2065 12.208C84.2278 12.5493 84.2598 12.88 84.3025 13.2H83.8225C83.3318 11.4293 82.6705 10.0853 81.8385 9.168C81.0278 8.22933 80.1425 7.76 79.1825 7.76ZM95.845 23.44H89.285L87.685 28.88L89.765 29.68V30H84.965V29.68L87.045 28.88L93.285 7.12H93.765L100.485 29.2L102.405 29.68V30H95.685V29.68L97.605 29.2L95.845 23.44ZM89.445 22.832H95.653L92.453 12.24L89.445 22.832ZM107.83 18.48V29.2L109.75 29.68V30H103.19V29.68L105.11 29.2V8.4L103.19 7.92V7.6H116.15C116.107 7.792 116.075 8.016 116.054 8.272C116.033 8.50667 116.011 8.784 115.99 9.104C115.99 9.40266 115.99 9.75467 115.99 10.16C115.99 10.4587 115.99 10.7573 115.99 11.056C116.011 11.3333 116.033 11.6 116.054 11.856C116.075 12.1547 116.107 12.4427 116.15 12.72H115.83C115.275 12.1653 114.817 11.504 114.454 10.736C114.091 9.968 113.91 9.136 113.91 8.24H107.83V17.84H110.87L112.31 14.96H112.63V21.36H112.31L110.87 18.48H107.83ZM129.605 29.36C129.605 28.464 129.786 27.632 130.149 26.864C130.512 26.096 130.97 25.4347 131.525 24.88H131.845C131.802 25.1573 131.77 25.4453 131.749 25.744C131.728 26 131.706 26.2773 131.685 26.576C131.685 26.8747 131.685 27.1627 131.685 27.44C131.685 27.8453 131.685 28.208 131.685 28.528C131.706 28.8267 131.728 29.0933 131.749 29.328C131.77 29.584 131.802 29.808 131.845 30H118.565V29.68L120.485 29.2V8.4L118.565 7.92V7.6H131.525C131.482 7.792 131.45 8.016 131.429 8.272C131.408 8.50667 131.386 8.784 131.365 9.104C131.365 9.40266 131.365 9.75467 131.365 10.16C131.365 10.4587 131.365 10.7573 131.365 11.056C131.386 11.3333 131.408 11.6 131.429 11.856C131.45 12.1547 131.482 12.4427 131.525 12.72H131.205C130.65 12.1653 130.192 11.504 129.829 10.736C129.466 9.968 129.285 9.136 129.285 8.24H123.205V17.84H126.245L127.685 14.96H128.005V21.36H127.685L126.245 18.48H123.205V29.36H129.605Z" fill="#43281D"/>
<path d="M126.5 0L126.64 2.17044L127.228 0.0764835L126.913 2.22855L127.924 0.302591L127.168 2.34223L128.557 0.668441L127.395 2.5065L129.101 1.15804L127.582 2.7142L129.531 1.75L127.721 2.95624L129.829 2.41844L127.808 3.22205L129.981 3.13415L127.837 3.5L129.981 3.86585L127.808 3.77795L129.829 4.58156L127.721 4.04376L129.531 5.25L127.582 4.2858L129.101 5.84196L127.395 4.4935L128.557 6.33156L127.168 4.65777L127.924 6.69741L126.913 4.77145L127.228 6.92352L126.64 4.82956L126.5 7L126.36 4.82956L125.772 6.92352L126.087 4.77145L125.076 6.69741L125.832 4.65777L124.443 6.33156L125.605 4.4935L123.899 5.84196L125.418 4.2858L123.469 5.25L125.279 4.04376L123.171 4.58156L125.192 3.77795L123.019 3.86585L125.163 3.5L123.019 3.13415L125.192 3.22205L123.171 2.41844L125.279 2.95624L123.469 1.75L125.418 2.7142L123.899 1.15804L125.605 2.5065L124.443 0.668441L125.832 2.34223L125.076 0.302591L126.087 2.22855L125.772 0.0764835L126.36 2.17044L126.5 0Z" fill="#43281D"/>
</svg>
